<?xml version="1.0" standalone="no"?>
<!DOCTYPE svg PUBLIC "-//W3C//DTD SVG 20010904//EN"
 "http://www.w3.org/TR/2001/REC-SVG-20010904/DTD/svg10.dtd">
<svg version="1.0" xmlns="http://www.w3.org/2000/svg"
 width="512.000000pt" height="512.000000pt" viewBox="0 0 512.000000 512.000000"
 preserveAspectRatio="xMidYMid meet">

<g transform="translate(0.000000,512.000000) scale(0.100000,-0.100000)"
fill="#000000" stroke="none">
<path d="M1275 4670 c-418 -89 -740 -414 -825 -832 -20 -96 -20 -130 -18
-1311 l3 -1212 22 -77 c49 -171 112 -296 213 -421 139 -172 328 -292 568 -360
l77 -22 1209 -3 c1051 -2 1221 0 1291 13 395 74 708 350 828 730 48 155 48
153 45 1430 -3 1199 -3 1200 -25 1277 -114 402 -380 669 -775 779 l-83 24
-1220 2 c-1165 2 -1224 1 -1310 -17z m1383 -1069 c47 -24 77 -56 97 -103 13
-32 15 -99 15 -440 l0 -402 194 -196 c201 -201 235 -248 236 -319 1 -122 -99
-221 -222 -221 -72 0 -124 40 -365 283 -147 147 -238 247 -248 270 -23 55 -23
970 0 1025 48 113 181 160 293 103z"/>
</g>
</svg>
