<?xml version="1.0" encoding="UTF-8" standalone="no"?>
<svg
   version="1.0"
   width="360pt"
   height="360pt"
   viewBox="0 0 360 360"
   preserveAspectRatio="xMidYMid"
   id="svg4"
   xmlns="http://www.w3.org/2000/svg"
   xmlns:svg="http://www.w3.org/2000/svg">
  <defs
     id="defs4" />
  <g
     transform="matrix(0.1,0,0,-0.1,-2.3285899,367.91721)"
     fill="#000000"
     stroke="none"
     id="g4">
    <path
       d="m 1526,2305 c -17,-18 -11,-45 10,-45 8,0 14,-8 14,-17 0,-13 6,-11 28,10 34,32 43,27 31,-16 -4,-18 -42,-185 -84,-371 -65,-293 -79,-344 -103,-372 -15,-18 -36,-33 -48,-33 -19,-1 -21,-6 -18,-53 4,-47 3,-50 -7,-25 -6,15 -15,27 -20,27 -5,0 -9,9 -9,21 0,11 4,18 8,15 11,-6 52,166 59,247 7,68 -6,100 -48,118 -34,13 -38,29 -8,29 84,0 157,151 147,307 -3,54 -8,68 -33,93 -41,40 -100,50 -306,50 -167,0 -169,0 -174,-22 -3,-13 -46,-203 -95,-423 -50,-220 -96,-426 -104,-457 l -14,-58 h 127 126 l 29,128 c 73,329 65,303 95,300 20,-2 27,-9 29,-32 3,-23 -52,-300 -74,-379 -5,-16 3,-17 112,-15 117,3 118,3 124,28 6,24 7,23 13,-9 7,-34 32,-71 49,-71 4,0 8,13 8,29 0,34 45,141 60,141 5,0 10,-6 10,-14 0,-23 49,-75 94,-99 34,-18 58,-21 141,-22 121,0 177,21 248,93 51,52 70,91 93,190 8,37 17,75 20,85 5,15 -3,12 -43,-12 -26,-16 -74,-42 -106,-57 -60,-28 -77,-50 -77,-101 0,-15 7,-35 17,-45 23,-26 11,-32 -31,-14 -34,14 -53,35 -21,22 13,-5 12,-1 -2,19 -10,13 -22,25 -27,25 -5,0 -19,8 -30,18 -18,15 -18,14 2,-15 l 23,-32 -21,-11 c -45,-24 -50,11 -21,135 11,44 18,81 16,83 -4,4 -251,-204 -260,-218 -11,-18 -25,-10 -25,14 0,13 7,29 14,36 8,6 20,28 27,48 11,34 43,71 62,72 5,0 5,-9 2,-20 -10,-31 3,-24 21,13 20,38 52,75 79,90 18,9 19,9 6,-7 -14,-16 -12,-16 22,0 48,23 47,34 -5,34 -40,0 -41,0 -23,20 10,11 22,17 26,14 5,-3 6,15 3,40 -7,46 13,96 37,96 6,0 1,-12 -10,-26 -12,-15 -21,-34 -20,-43 0,-12 2,-11 8,4 5,11 12,20 17,20 17,1 74,30 74,38 0,4 -9,11 -20,15 -19,7 -19,8 6,45 14,21 28,37 30,35 2,-2 -1,-22 -7,-43 -10,-35 -9,-40 13,-57 l 23,-18 h -33 c -18,0 -31,-4 -28,-8 3,-5 -4,-46 -14,-91 -11,-45 -20,-84 -20,-86 0,-12 30,10 35,25 4,11 12,17 21,13 31,-12 5,-139 -31,-153 -34,-13 -40,-30 -17,-52 19,-20 20,-20 33,23 12,36 24,49 84,87 46,30 63,37 50,22 -17,-20 -14,-19 24,6 l 45,29 -42,6 c -47,6 -68,19 -31,19 h 23 l -22,16 c -20,14 -25,14 -52,-2 -16,-10 -32,-16 -35,-13 -2,3 20,115 50,249 30,133 55,247 55,251 0,16 33,9 55,-11 25,-24 47,-19 65,15 7,12 22,28 34,33 16,8 3,11 -61,11 -67,1 -83,-2 -83,-14 0,-19 -14,-19 -56,1 -18,9 -39,14 -46,11 -8,-3 -5,-6 6,-6 16,-1 18,-7 13,-41 -5,-38 6,-64 16,-38 8,19 8,-95 0,-133 -5,-29 -7,-30 -15,-14 -5,13 -7,3 -4,-30 l 5,-50 -20,45 c -19,43 -19,48 -4,108 14,58 14,64 -2,89 -18,26 -17,27 2,20 20,-7 20,-7 1,8 -12,9 -41,15 -70,15 -28,1 -73,7 -101,15 l -50,14 h 95 c 91,1 94,2 66,16 -41,21 -228,21 -250,0 z m -286,-200 c 10,-12 9,-29 -5,-84 -20,-82 -30,-97 -69,-107 -33,-8 -33,-17 0,134 14,64 19,72 39,72 12,0 28,-7 35,-15 z"
       id="path1" />
    <path
       d="m 2130,2281 c 14,-4 30,-17 36,-29 l 11,-23 7,23 c 9,37 8,38 -36,37 -35,-1 -38,-2 -18,-8 z"
       id="path2" />
    <path
       d="m 2287,2283 c -3,-5 -13,-48 -23,-97 -16,-80 -19,-87 -31,-70 -14,18 -15,18 -39,-10 -15,-17 -24,-37 -21,-48 3,-11 -2,-22 -15,-29 -11,-6 -21,-9 -23,-7 -2,2 5,37 15,78 30,119 32,128 22,106 -5,-12 -11,-16 -15,-9 -16,25 -81,-20 -89,-61 -3,-19 -4,-19 -20,-2 -22,22 -23,13 -2,-19 9,-14 16,-41 17,-62 0,-46 11,-63 37,-56 15,4 20,0 20,-15 0,-33 -18,-72 -34,-72 -24,0 -58,50 -45,66 6,7 8,23 4,34 -6,20 -8,20 -24,6 -29,-27 -32,-18 -6,20 25,37 33,60 16,50 -5,-3 -11,16 -15,42 -10,74 -26,87 -21,17 3,-59 3,-60 -11,-27 -8,17 -16,32 -18,32 -2,0 -2,-33 0,-72 2,-40 1,-67 -2,-60 -11,23 -24,12 -25,-20 -2,-31 -2,-31 -6,-5 -6,38 -23,34 -24,-5 -1,-46 -12,-80 -24,-76 -5,2 -12,-10 -13,-27 -2,-16 -8,-35 -13,-41 -14,-17 0,-23 31,-12 37,12 85,-9 139,-63 l 38,-39 19,88 c 15,73 24,93 55,127 20,22 51,60 69,85 18,25 29,35 26,24 -4,-12 -40,-172 -81,-355 -42,-184 -78,-342 -81,-352 -5,-16 3,-17 102,-15 l 107,3 46,207 c 25,114 47,205 48,204 2,-2 33,-383 33,-408 0,-5 49,-8 109,-8 96,0 110,2 115,18 2,9 35,152 72,317 36,165 83,373 104,463 l 37,163 -105,-3 -106,-3 -17,-70 c -9,-38 -29,-130 -45,-202 -16,-73 -31,-127 -35,-120 -3,6 -9,48 -13,92 -3,44 -11,131 -18,193 l -11,112 h -103 c -57,0 -105,-3 -107,-7 z m -142,-113 c 3,-5 1,-10 -4,-10 -6,0 -11,5 -11,10 0,6 2,10 4,10 3,0 8,-4 11,-10 z"
       id="path3" />
    <path
       d="m 1862,2100 c 0,-14 2,-19 5,-12 2,6 2,18 0,25 -3,6 -5,1 -5,-13 z"
       id="path4" />
  </g>
</svg>
